<?xml version="1.0" encoding="utf-8"?>
<!-- Generator: Adobe Illustrator 25.0.0, SVG Export Plug-In . SVG Version: 6.00 Build 0)  -->
<svg version="1.1" id="Capa_1" xmlns="http://www.w3.org/2000/svg" xmlns:xlink="http://www.w3.org/1999/xlink" x="0px" y="0px"
	 viewBox="0 0 83.82 62.86" style="enable-background:new 0 0 83.82 62.86;" xml:space="preserve">
<g>
	<path d="M28.2,31.42c-1.18-1-2.32-1.96-3.46-2.93c-0.64-0.54-0.65-1.01-0.02-1.58c1.19-1.08,2.38-2.15,3.59-3.25
		c-0.57-0.61-1.13-1.2-1.69-1.8c-0.66-0.71-1.32-1.41-1.99-2.11c-0.29-0.3-0.48-0.63-0.3-1.05c0.18-0.43,0.53-0.51,0.96-0.51
		c10.32,0.01,20.63,0,30.95,0c1.97,0,3.32,1.35,3.32,3.32c0,6.62,0,13.23,0,19.85c0,1.94-1.36,3.3-3.3,3.3c-10.32,0-20.63,0-30.95,0
		c-0.42,0-0.78-0.08-0.97-0.5c-0.19-0.44,0.01-0.77,0.31-1.08c1.14-1.2,2.27-2.41,3.4-3.61c0.08-0.09,0.16-0.18,0.26-0.28
		c-1.16-1.05-2.31-2.1-3.46-3.14c-0.08-0.07-0.17-0.14-0.25-0.22c-0.47-0.45-0.45-0.96,0.05-1.39c1.08-0.92,2.17-1.83,3.26-2.75
		C28,31.61,28.08,31.53,28.2,31.42z M52.41,42.99c1.34,0,2.62,0.01,3.91,0c0.97-0.01,1.57-0.61,1.57-1.59c0-6.64,0-13.28,0-19.92
		c0-1-0.59-1.6-1.59-1.6c-1.19-0.01-2.38,0-3.57,0c-0.09,0-0.19,0.02-0.32,0.03c0,0.45,0.01,0.87,0,1.3
		c-0.02,0.52-0.4,0.88-0.86,0.87c-0.47-0.01-0.8-0.38-0.81-0.91c0-0.42,0-0.85,0-1.25c-7.9,0-15.76,0-23.66,0
		c1,1.06,1.96,2.08,2.91,3.1c0.5,0.53,0.48,0.96-0.05,1.45c-1.11,1-2.22,2.01-3.33,3.01c-0.08,0.07-0.19,0.1-0.32,0.17
		c1.29,1.09,2.47,2.08,3.65,3.08c0.51,0.43,0.51,1.02,0.01,1.44c-0.36,0.3-0.71,0.6-1.07,0.9c-0.83,0.7-1.66,1.4-2.51,2.12
		c0.09,0.09,0.16,0.16,0.23,0.22c1.1,1,2.2,1.99,3.3,2.99c0.58,0.52,0.59,0.94,0.07,1.5c-0.89,0.94-1.78,1.89-2.67,2.84
		c-0.07,0.07-0.12,0.15-0.21,0.26c7.91,0,15.76,0,23.65,0c0-0.43,0-0.85,0-1.26c0-0.13,0.01-0.27,0.06-0.39
		c0.14-0.36,0.52-0.57,0.88-0.51c0.43,0.07,0.7,0.38,0.72,0.85C52.43,42.08,52.41,42.51,52.41,42.99z"/>
	<path d="M42.68,30.6c-0.48-0.41-0.87-0.75-1.27-1.08c-0.28-0.24-0.57-0.47-0.84-0.72c-0.37-0.35-0.41-0.82-0.11-1.18
		c0.31-0.36,0.79-0.42,1.18-0.09c1.3,1.08,2.59,2.17,3.87,3.28c0.4,0.35,0.4,0.91-0.01,1.25c-1.28,1.1-2.57,2.19-3.87,3.28
		c-0.39,0.32-0.87,0.27-1.18-0.1c-0.29-0.35-0.27-0.83,0.09-1.15c0.59-0.53,1.21-1.04,1.81-1.55c0.07-0.06,0.15-0.12,0.31-0.27
		c-0.23,0-0.35,0-0.48,0c-1.97,0-3.94,0-5.92,0c-0.64,0-1-0.33-0.98-0.87c0.01-0.4,0.3-0.72,0.7-0.77c0.14-0.02,0.29-0.02,0.44-0.02
		c1.91,0,3.82,0,5.73,0C42.3,30.6,42.43,30.6,42.68,30.6z"/>
	<path d="M50.74,27.34c0-0.65,0-1.3,0-1.95c0-0.53,0.32-0.9,0.79-0.92c0.47-0.02,0.86,0.35,0.87,0.89c0.02,0.73,0.01,1.47,0.01,2.2
		c0,0.6,0.01,1.2-0.01,1.8c-0.01,0.46-0.27,0.75-0.68,0.84c-0.33,0.07-0.71-0.08-0.87-0.39c-0.07-0.14-0.11-0.32-0.11-0.49
		C50.74,28.66,50.74,28,50.74,27.34z"/>
	<path d="M50.74,35.51c0-0.65,0-1.3,0-1.94c0-0.55,0.33-0.93,0.82-0.93c0.48-0.01,0.84,0.37,0.85,0.91c0.01,1.11,0,2.23,0,3.34
		c0,0.23,0.01,0.47-0.01,0.7c-0.05,0.49-0.43,0.83-0.88,0.8c-0.46-0.03-0.78-0.39-0.78-0.89C50.74,36.83,50.74,36.17,50.74,35.51z"
		/>
</g>
</svg>
